<svg width="18" height="23" viewBox="0 0 18 23" fill="none" xmlns="http://www.w3.org/2000/svg">
<path fill-rule="evenodd" clip-rule="evenodd" d="M10.1969 2.65113C11.5993 0.809607 13.5487 0.80069 13.5487 0.80069C13.5487 0.80069 13.8386 2.53211 12.4455 4.20008C10.958 5.98089 9.26708 5.68969 9.26708 5.68969C9.26708 5.68969 8.94969 4.28891 10.1969 2.65113Z" fill="#212121"/>
<path fill-rule="evenodd" clip-rule="evenodd" d="M9.44574 6.90251C10.1673 6.90251 11.506 5.91435 13.2489 5.91435C16.249 5.91435 17.429 8.04124 17.429 8.04124C17.429 8.04124 15.1209 9.21701 15.1209 12.0704C15.1209 15.289 17.9963 16.3982 17.9963 16.3982C17.9963 16.3982 15.9863 22.0353 13.2713 22.0353C12.0244 22.0353 11.0547 21.198 9.7411 21.198C8.40235 21.198 7.07358 22.0665 6.20816 22.0665C3.72894 22.0665 0.597034 16.7193 0.597034 12.4212C0.597034 8.1925 3.24803 5.97403 5.73483 5.97403C7.35069 5.97368 8.6051 6.90251 9.44574 6.90251Z" fill="#212121"/>
</svg>
